<?xml version="1.0" encoding="UTF-8"?>
<svg id="Capa_2" data-name="Capa 2" xmlns="http://www.w3.org/2000/svg" viewBox="0 0 248.9 248.9">
  <defs>
    <style>
      .cls-1 {
        fill: #f49739;
      }
    </style>
  </defs>
  <g id="Capa_1-2" data-name="Capa 1">
    <path class="cls-1" d="m124.45,0L0,124.45l124.45,124.45,124.45-124.45L124.45,0Zm-55.48,91.16c0-6.13,4.97-11.1,11.1-11.1h88.77c6.13,0,11.1,4.97,11.1,11.1l-11.1,6.55-44.38,25.91-44.38-24.13-11.1-6.1v-2.22Zm110.96,66.58c0,6.13-4.97,11.1-11.1,11.1h-88.77c-6.13,0-11.1-4.97-11.1-11.1v-51.65l11.1,6.05,41.72,22.75c.82.44,1.73.67,2.66.67.98-.01,1.93-.28,2.77-.78l41.61-24.24,11.1-6.49v53.7Z"/>
  </g>
</svg>