<?xml version="1.0" encoding="UTF-8"?>
<svg id="Capa_2" data-name="Capa 2" xmlns="http://www.w3.org/2000/svg" viewBox="0 0 248.9 248.9">
  <defs>
    <style>
      .cls-1 {
        fill: #53b262;
      }
    </style>
  </defs>
  <g id="Capa_1-2" data-name="Capa 1">
    <g>
      <path class="cls-1" d="m131.24,71.23c-26.05,0-47.18,21.12-47.18,47.18,0,9.3,2.69,17.96,7.21,25.07l1.12,1.78-4.76,17.41,17.85-4.69,1.72,1.02-.21-.12c7.08,4.25,15.36,6.7,24.22,6.7h.02c26.06,0,47.18-21.12,47.18-47.18s-21.12-47.18-47.18-47.18Zm27.77,67.43l-.03.06c-2.07,3.36-5.45,5.83-9.54,6.68l.12-.02c-1.1.19-2.24.3-3.4.3-2.02,0-3.96-.31-5.65-.84l-.57-.16c-2.74-.87-5.42-1.88-7.52-2.83l-.36-.16c-9.58-4.9-17.75-12.16-23.87-21.25l.05.06c-3.23-4.1-5.33-9.13-5.83-14.73v.02c0-.1,0-.2,0-.3,0-4.54,1.9-8.64,4.96-11.55h0c.92-1.06,2.26-1.74,3.77-1.78.95,0,1.89,0,2.72.05.87.05,2.04-.33,3.19,2.43,1.18,2.84,4.01,9.82,4.37,10.53h0c.24.39.39.85.39,1.35,0,.41-.1.8-.26,1.13l-.02.06c-.36.84-.84,1.62-1.4,2.31-.71.82-1.49,1.85-2.13,2.48-.71.71-1.44,1.47-.62,2.89l.11.2c2.11,3.56,4.72,6.79,7.77,9.62,3.27,2.91,7.04,5.28,11.42,7.05,1.42.71,2.25.59,3.07-.36.83-.95,3.55-4.14,4.49-5.56.95-1.42,1.89-1.19,3.2-.71,1.3.48,8.27,3.9,9.69,4.61h0c1.42.72,2.36,1.07,2.72,1.66,0-.02,0-.05,0-.07v.07s0,0,0,0c.11.65.17,1.32.17,2,0,1.71-.37,3.35-1,4.74Z"/>
      <path class="cls-1" d="m124.45,0L0,124.45l124.45,124.45,124.45-124.45L124.45,0Zm6.79,175.17h-.02c-9.95,0-19.29-2.56-27.12-6.91l-30.09,7.89,8.05-29.41c-4.81-8.34-7.58-18.02-7.58-28.35,0-31.36,25.42-56.77,56.77-56.77,15.68,0,29.87,6.36,40.14,16.63h0c10.26,10.28,16.61,24.46,16.61,40.13,0,31.35-25.41,56.77-56.76,56.78Z"/>
    </g>
  </g>
</svg>